<svg width="24" height="24" viewBox="0 0 24 24" fill="none" xmlns="http://www.w3.org/2000/svg"><path d="M11.854 2.117L5.478 7.022v8.956l6.376 4.905a.56.56 0 00.901-.444V2.561a.56.56 0 00-.9-.444zM1 9.26a2.24 2.24 0 012.24-2.238h2.238v8.956H3.24A2.24 2.24 0 011 13.74V9.261zm14.39 4.259a.56.56 0 000 .791l.792.792a.56.56 0 00.792 0l1.979-1.979 1.979 1.98a.56.56 0 00.791 0l.792-.793a.56.56 0 000-.791l-1.98-1.98 1.98-1.978a.56.56 0 000-.792l-.791-.792a.56.56 0 00-.792 0l-1.98 1.98-1.978-1.98a.56.56 0 00-.792 0l-.792.792a.56.56 0 000 .792l1.98 1.979-1.98 1.979z" fill="#fff"></path></svg>