<svg width="24" height="24" viewBox="0 0 24 24" fill="none" xmlns="http://www.w3.org/2000/svg"><path d="M5.513 7.022l6.425-4.905a.564.564 0 01.908.444v17.878a.564.564 0 01-.908.444l-6.425-4.905H3.256A2.248 2.248 0 011 13.74V9.261c0-1.237 1.01-2.24 2.256-2.24h2.257zm9.59 3.358V8.141c1.869 0 3.384 1.504 3.384 3.359s-1.515 3.359-3.384 3.359V10.38z" fill="#fff"></path><path d="M15.103 5.902c3.115 0 5.64 2.506 5.64 5.598s-2.525 5.598-5.64 5.598v2.239c4.361 0 7.897-3.509 7.897-7.837 0-4.328-3.536-7.837-7.897-7.837v2.24z" fill="#fff"></path></svg>